<?xml version="1.0" encoding="utf-8"?>
<!-- Generator: Adobe Illustrator 16.0.0, SVG Export Plug-In . SVG Version: 6.00 Build 0)  -->
<!DOCTYPE svg PUBLIC "-//W3C//DTD SVG 1.1//EN" "http://www.w3.org/Graphics/SVG/1.1/DTD/svg11.dtd">
<svg version="1.1" id="图层_1" xmlns="http://www.w3.org/2000/svg" xmlns:xlink="http://www.w3.org/1999/xlink" x="0px" y="0px"
	 width="16px" height="16px" viewBox="0 0 16 16" enable-background="new 0 0 16 16" xml:space="preserve">
<g>
	<g>
		<path fill="#040000" d="M13.402,2.562H2.601c-0.964,0-1.748,0.784-1.748,1.748v7.382c0,0.963,0.784,1.748,1.748,1.748h10.799
			c0.964,0,1.748-0.785,1.748-1.748V4.313C15.15,3.349,14.366,2.562,13.402,2.562z M14.352,11.691c0,0.523-0.426,0.949-0.949,0.949
			H2.601c-0.523,0-0.95-0.426-0.95-0.949V4.313c0-0.524,0.427-0.95,0.95-0.95h10.799c0.523,0,0.95,0.426,0.95,0.95v7.379H14.352z"/>
		<path fill="#040000" d="M9.868,7.908l3.496-3.135c0.163-0.147,0.176-0.398,0.029-0.564c-0.148-0.162-0.4-0.178-0.565-0.03
			L8.007,8.506l-0.94-0.841C7.063,7.663,7.06,7.661,7.06,7.657C7.041,7.637,7.019,7.62,6.995,7.601L3.168,4.177
			C3.003,4.028,2.751,4.042,2.604,4.209C2.457,4.375,2.47,4.626,2.636,4.773l3.539,3.163l-3.523,3.298
			c-0.16,0.148-0.17,0.4-0.018,0.563c0.081,0.084,0.187,0.127,0.293,0.127c0.096,0,0.195-0.033,0.271-0.105l3.575-3.345L7.745,9.34
			c0.076,0.068,0.17,0.102,0.265,0.102s0.192-0.037,0.267-0.104l0.997-0.894l3.555,3.376c0.077,0.074,0.178,0.111,0.276,0.111
			c0.106,0,0.208-0.041,0.289-0.123c0.149-0.16,0.145-0.416-0.015-0.566L9.868,7.908z"/>
	</g>
</g>
</svg>
